G04 #@! TF.GenerationSoftware,KiCad,Pcbnew,(5.1.4)-1*
G04 #@! TF.CreationDate,2020-01-13T04:09:21-05:00*
G04 #@! TF.ProjectId,SRXBreakout,53525842-7265-4616-9b6f-75742e6b6963,rev?*
G04 #@! TF.SameCoordinates,Original*
G04 #@! TF.FileFunction,Soldermask,Bot*
G04 #@! TF.FilePolarity,Negative*
%FSLAX46Y46*%
G04 Gerber Fmt 4.6, Leading zero omitted, Abs format (unit mm)*
G04 Created by KiCad (PCBNEW (5.1.4)-1) date 2020-01-13 04:09:21*
%MOMM*%
%LPD*%
G04 APERTURE LIST*
%ADD10C,2.000000*%
%ADD11C,0.375000*%
%ADD12C,0.100000*%
G04 APERTURE END LIST*
D10*
X156994903Y-123825000D02*
G75*
G03X156994903Y-123825000I-1419903J0D01*
G01*
X156994903Y-104775000D02*
G75*
G03X156994903Y-104775000I-1419903J0D01*
G01*
D11*
X175846857Y-124352857D02*
X176346857Y-124352857D01*
X176346857Y-125138571D02*
X176346857Y-123638571D01*
X175632571Y-123638571D01*
X174204000Y-125138571D02*
X174704000Y-124424285D01*
X175061142Y-125138571D02*
X175061142Y-123638571D01*
X174489714Y-123638571D01*
X174346857Y-123710000D01*
X174275428Y-123781428D01*
X174204000Y-123924285D01*
X174204000Y-124138571D01*
X174275428Y-124281428D01*
X174346857Y-124352857D01*
X174489714Y-124424285D01*
X175061142Y-124424285D01*
X172704000Y-124995714D02*
X172775428Y-125067142D01*
X172989714Y-125138571D01*
X173132571Y-125138571D01*
X173346857Y-125067142D01*
X173489714Y-124924285D01*
X173561142Y-124781428D01*
X173632571Y-124495714D01*
X173632571Y-124281428D01*
X173561142Y-123995714D01*
X173489714Y-123852857D01*
X173346857Y-123710000D01*
X173132571Y-123638571D01*
X172989714Y-123638571D01*
X172775428Y-123710000D01*
X172704000Y-123781428D01*
X172132571Y-123781428D02*
X172061142Y-123710000D01*
X171918285Y-123638571D01*
X171561142Y-123638571D01*
X171418285Y-123710000D01*
X171346857Y-123781428D01*
X171275428Y-123924285D01*
X171275428Y-124067142D01*
X171346857Y-124281428D01*
X172204000Y-125138571D01*
X171275428Y-125138571D01*
X169846857Y-125138571D02*
X170704000Y-125138571D01*
X170275428Y-125138571D02*
X170275428Y-123638571D01*
X170418285Y-123852857D01*
X170561142Y-123995714D01*
X170704000Y-124067142D01*
X168561142Y-123638571D02*
X168846857Y-123638571D01*
X168989714Y-123710000D01*
X169061142Y-123781428D01*
X169204000Y-123995714D01*
X169275428Y-124281428D01*
X169275428Y-124852857D01*
X169204000Y-124995714D01*
X169132571Y-125067142D01*
X168989714Y-125138571D01*
X168704000Y-125138571D01*
X168561142Y-125067142D01*
X168489714Y-124995714D01*
X168418285Y-124852857D01*
X168418285Y-124495714D01*
X168489714Y-124352857D01*
X168561142Y-124281428D01*
X168704000Y-124210000D01*
X168989714Y-124210000D01*
X169132571Y-124281428D01*
X169204000Y-124352857D01*
X169275428Y-124495714D01*
X167561142Y-124281428D02*
X167704000Y-124210000D01*
X167775428Y-124138571D01*
X167846857Y-123995714D01*
X167846857Y-123924285D01*
X167775428Y-123781428D01*
X167704000Y-123710000D01*
X167561142Y-123638571D01*
X167275428Y-123638571D01*
X167132571Y-123710000D01*
X167061142Y-123781428D01*
X166989714Y-123924285D01*
X166989714Y-123995714D01*
X167061142Y-124138571D01*
X167132571Y-124210000D01*
X167275428Y-124281428D01*
X167561142Y-124281428D01*
X167704000Y-124352857D01*
X167775428Y-124424285D01*
X167846857Y-124567142D01*
X167846857Y-124852857D01*
X167775428Y-124995714D01*
X167704000Y-125067142D01*
X167561142Y-125138571D01*
X167275428Y-125138571D01*
X167132571Y-125067142D01*
X167061142Y-124995714D01*
X166989714Y-124852857D01*
X166989714Y-124567142D01*
X167061142Y-124424285D01*
X167132571Y-124352857D01*
X167275428Y-124281428D01*
D12*
G36*
X169811000Y-120281000D02*
G01*
X168009000Y-120281000D01*
X168009000Y-118479000D01*
X169811000Y-118479000D01*
X169811000Y-120281000D01*
X169811000Y-120281000D01*
G37*
G36*
X172351000Y-117741000D02*
G01*
X170549000Y-117741000D01*
X170549000Y-115939000D01*
X172351000Y-115939000D01*
X172351000Y-117741000D01*
X172351000Y-117741000D01*
G37*
G36*
X169811000Y-117741000D02*
G01*
X168009000Y-117741000D01*
X168009000Y-115939000D01*
X169811000Y-115939000D01*
X169811000Y-117741000D01*
X169811000Y-117741000D01*
G37*
G36*
X155048015Y-111216973D02*
G01*
X155151879Y-111248479D01*
X155179055Y-111263005D01*
X155247600Y-111299643D01*
X155331501Y-111368499D01*
X155400357Y-111452400D01*
X155436995Y-111520945D01*
X155451521Y-111548121D01*
X155455388Y-111560869D01*
X155464760Y-111583496D01*
X155478374Y-111603870D01*
X155495701Y-111621197D01*
X155516075Y-111634811D01*
X155538714Y-111644188D01*
X155562747Y-111648969D01*
X155587251Y-111648969D01*
X155611285Y-111644189D01*
X155633924Y-111634812D01*
X155654298Y-111621198D01*
X155671625Y-111603871D01*
X155685239Y-111583497D01*
X155694612Y-111560869D01*
X155698479Y-111548121D01*
X155713005Y-111520945D01*
X155749643Y-111452400D01*
X155818499Y-111368499D01*
X155902400Y-111299643D01*
X155970945Y-111263005D01*
X155998121Y-111248479D01*
X156101985Y-111216973D01*
X156182933Y-111209000D01*
X156237067Y-111209000D01*
X156318015Y-111216973D01*
X156421879Y-111248479D01*
X156449055Y-111263005D01*
X156517600Y-111299643D01*
X156601501Y-111368499D01*
X156670357Y-111452400D01*
X156706995Y-111520945D01*
X156721521Y-111548121D01*
X156753027Y-111651985D01*
X156763666Y-111760000D01*
X156753027Y-111868015D01*
X156721521Y-111971879D01*
X156721519Y-111971882D01*
X156670357Y-112067600D01*
X156601501Y-112151501D01*
X156517600Y-112220357D01*
X156449055Y-112256995D01*
X156421879Y-112271521D01*
X156409131Y-112275388D01*
X156386504Y-112284760D01*
X156366130Y-112298374D01*
X156348803Y-112315701D01*
X156335189Y-112336075D01*
X156325812Y-112358714D01*
X156321031Y-112382747D01*
X156321031Y-112407251D01*
X156325811Y-112431285D01*
X156335188Y-112453924D01*
X156348802Y-112474298D01*
X156366129Y-112491625D01*
X156386503Y-112505239D01*
X156409131Y-112514612D01*
X156421879Y-112518479D01*
X156449055Y-112533005D01*
X156517600Y-112569643D01*
X156601501Y-112638499D01*
X156670357Y-112722400D01*
X156706995Y-112790945D01*
X156721521Y-112818121D01*
X156753027Y-112921985D01*
X156763666Y-113030000D01*
X156753027Y-113138015D01*
X156721521Y-113241879D01*
X156721519Y-113241882D01*
X156670357Y-113337600D01*
X156601501Y-113421501D01*
X156517600Y-113490357D01*
X156449055Y-113526995D01*
X156421879Y-113541521D01*
X156409131Y-113545388D01*
X156386504Y-113554760D01*
X156366130Y-113568374D01*
X156348803Y-113585701D01*
X156335189Y-113606075D01*
X156325812Y-113628714D01*
X156321031Y-113652747D01*
X156321031Y-113677251D01*
X156325811Y-113701285D01*
X156335188Y-113723924D01*
X156348802Y-113744298D01*
X156366129Y-113761625D01*
X156386503Y-113775239D01*
X156409131Y-113784612D01*
X156421879Y-113788479D01*
X156449055Y-113803005D01*
X156517600Y-113839643D01*
X156601501Y-113908499D01*
X156670357Y-113992400D01*
X156706995Y-114060945D01*
X156721521Y-114088121D01*
X156753027Y-114191985D01*
X156763666Y-114300000D01*
X156753027Y-114408015D01*
X156721521Y-114511879D01*
X156721519Y-114511882D01*
X156670357Y-114607600D01*
X156601501Y-114691501D01*
X156517600Y-114760357D01*
X156449055Y-114796995D01*
X156421879Y-114811521D01*
X156409131Y-114815388D01*
X156386504Y-114824760D01*
X156366130Y-114838374D01*
X156348803Y-114855701D01*
X156335189Y-114876075D01*
X156325812Y-114898714D01*
X156321031Y-114922747D01*
X156321031Y-114947251D01*
X156325811Y-114971285D01*
X156335188Y-114993924D01*
X156348802Y-115014298D01*
X156366129Y-115031625D01*
X156386503Y-115045239D01*
X156409131Y-115054612D01*
X156421879Y-115058479D01*
X156449055Y-115073005D01*
X156517600Y-115109643D01*
X156601501Y-115178499D01*
X156670357Y-115262400D01*
X156706995Y-115330945D01*
X156721521Y-115358121D01*
X156753027Y-115461985D01*
X156763666Y-115570000D01*
X156753027Y-115678015D01*
X156721521Y-115781879D01*
X156721519Y-115781882D01*
X156670357Y-115877600D01*
X156619967Y-115939000D01*
X156601501Y-115961501D01*
X156517600Y-116030356D01*
X156473807Y-116053764D01*
X156453437Y-116067375D01*
X156436110Y-116084702D01*
X156422496Y-116105076D01*
X156413119Y-116127715D01*
X156408338Y-116151748D01*
X156408338Y-116176252D01*
X156413118Y-116200286D01*
X156422495Y-116222924D01*
X156436109Y-116243299D01*
X156453436Y-116260626D01*
X156473810Y-116274240D01*
X156496449Y-116283617D01*
X156520482Y-116288398D01*
X156532735Y-116289000D01*
X156761000Y-116289000D01*
X156761000Y-117391000D01*
X155659000Y-117391000D01*
X155659000Y-117162735D01*
X155656598Y-117138349D01*
X155649485Y-117114900D01*
X155637934Y-117093289D01*
X155622389Y-117074347D01*
X155603447Y-117058802D01*
X155581836Y-117047251D01*
X155558387Y-117040138D01*
X155534001Y-117037736D01*
X155509615Y-117040138D01*
X155486166Y-117047251D01*
X155464555Y-117058802D01*
X155445613Y-117074347D01*
X155430068Y-117093289D01*
X155423767Y-117103802D01*
X155400356Y-117147600D01*
X155400355Y-117147601D01*
X155331501Y-117231501D01*
X155247600Y-117300357D01*
X155179055Y-117336995D01*
X155151879Y-117351521D01*
X155048015Y-117383027D01*
X154967067Y-117391000D01*
X154912933Y-117391000D01*
X154831985Y-117383027D01*
X154728121Y-117351521D01*
X154700945Y-117336995D01*
X154632400Y-117300357D01*
X154548499Y-117231501D01*
X154479643Y-117147600D01*
X154440489Y-117074347D01*
X154428479Y-117051879D01*
X154396973Y-116948015D01*
X154386334Y-116840000D01*
X154396973Y-116731985D01*
X154428479Y-116628121D01*
X154468338Y-116553551D01*
X154479643Y-116532400D01*
X154548499Y-116448499D01*
X154632400Y-116379643D01*
X154700945Y-116343005D01*
X154728121Y-116328479D01*
X154740869Y-116324612D01*
X154763496Y-116315240D01*
X154783870Y-116301626D01*
X154801197Y-116284299D01*
X154814811Y-116263925D01*
X154824188Y-116241286D01*
X154828969Y-116217253D01*
X154828969Y-116192749D01*
X154828969Y-116192747D01*
X155051031Y-116192747D01*
X155051031Y-116217251D01*
X155055811Y-116241285D01*
X155065188Y-116263924D01*
X155078802Y-116284298D01*
X155096129Y-116301625D01*
X155116503Y-116315239D01*
X155139131Y-116324612D01*
X155151879Y-116328479D01*
X155179055Y-116343005D01*
X155247600Y-116379643D01*
X155331501Y-116448499D01*
X155400356Y-116532400D01*
X155423764Y-116576193D01*
X155437375Y-116596563D01*
X155454702Y-116613890D01*
X155475076Y-116627504D01*
X155497715Y-116636881D01*
X155521748Y-116641662D01*
X155546252Y-116641662D01*
X155570286Y-116636882D01*
X155592924Y-116627505D01*
X155613299Y-116613891D01*
X155630626Y-116596564D01*
X155644240Y-116576190D01*
X155653617Y-116553551D01*
X155658398Y-116529518D01*
X155659000Y-116517265D01*
X155659000Y-116289000D01*
X155887265Y-116289000D01*
X155911651Y-116286598D01*
X155935100Y-116279485D01*
X155956711Y-116267934D01*
X155975653Y-116252389D01*
X155991198Y-116233447D01*
X156002749Y-116211836D01*
X156009862Y-116188387D01*
X156012264Y-116164001D01*
X156009862Y-116139615D01*
X156002749Y-116116166D01*
X155991198Y-116094555D01*
X155975653Y-116075613D01*
X155956711Y-116060068D01*
X155946198Y-116053767D01*
X155902400Y-116030356D01*
X155818499Y-115961501D01*
X155800033Y-115939000D01*
X155749643Y-115877600D01*
X155698481Y-115781882D01*
X155698479Y-115781879D01*
X155694612Y-115769131D01*
X155685240Y-115746504D01*
X155671626Y-115726130D01*
X155654299Y-115708803D01*
X155633925Y-115695189D01*
X155611286Y-115685812D01*
X155587253Y-115681031D01*
X155562749Y-115681031D01*
X155538715Y-115685811D01*
X155516076Y-115695188D01*
X155495702Y-115708802D01*
X155478375Y-115726129D01*
X155464761Y-115746503D01*
X155455388Y-115769131D01*
X155451521Y-115781879D01*
X155451519Y-115781882D01*
X155400357Y-115877600D01*
X155331501Y-115961501D01*
X155247600Y-116030357D01*
X155192014Y-116060068D01*
X155151879Y-116081521D01*
X155139131Y-116085388D01*
X155116504Y-116094760D01*
X155096130Y-116108374D01*
X155078803Y-116125701D01*
X155065189Y-116146075D01*
X155055812Y-116168714D01*
X155051031Y-116192747D01*
X154828969Y-116192747D01*
X154824189Y-116168715D01*
X154814812Y-116146076D01*
X154801198Y-116125702D01*
X154783871Y-116108375D01*
X154763497Y-116094761D01*
X154740869Y-116085388D01*
X154728121Y-116081521D01*
X154687986Y-116060068D01*
X154632400Y-116030357D01*
X154548499Y-115961501D01*
X154479643Y-115877600D01*
X154428481Y-115781882D01*
X154428479Y-115781879D01*
X154396973Y-115678015D01*
X154386334Y-115570000D01*
X154396973Y-115461985D01*
X154428479Y-115358121D01*
X154443005Y-115330945D01*
X154479643Y-115262400D01*
X154548499Y-115178499D01*
X154632400Y-115109643D01*
X154700945Y-115073005D01*
X154728121Y-115058479D01*
X154740869Y-115054612D01*
X154763496Y-115045240D01*
X154783870Y-115031626D01*
X154801197Y-115014299D01*
X154814811Y-114993925D01*
X154824188Y-114971286D01*
X154828969Y-114947253D01*
X154828969Y-114922749D01*
X154828969Y-114922747D01*
X155051031Y-114922747D01*
X155051031Y-114947251D01*
X155055811Y-114971285D01*
X155065188Y-114993924D01*
X155078802Y-115014298D01*
X155096129Y-115031625D01*
X155116503Y-115045239D01*
X155139131Y-115054612D01*
X155151879Y-115058479D01*
X155179055Y-115073005D01*
X155247600Y-115109643D01*
X155331501Y-115178499D01*
X155400357Y-115262400D01*
X155436995Y-115330945D01*
X155451521Y-115358121D01*
X155455388Y-115370869D01*
X155464760Y-115393496D01*
X155478374Y-115413870D01*
X155495701Y-115431197D01*
X155516075Y-115444811D01*
X155538714Y-115454188D01*
X155562747Y-115458969D01*
X155587251Y-115458969D01*
X155611285Y-115454189D01*
X155633924Y-115444812D01*
X155654298Y-115431198D01*
X155671625Y-115413871D01*
X155685239Y-115393497D01*
X155694612Y-115370869D01*
X155698479Y-115358121D01*
X155713005Y-115330945D01*
X155749643Y-115262400D01*
X155818499Y-115178499D01*
X155902400Y-115109643D01*
X155970945Y-115073005D01*
X155998121Y-115058479D01*
X156010869Y-115054612D01*
X156033496Y-115045240D01*
X156053870Y-115031626D01*
X156071197Y-115014299D01*
X156084811Y-114993925D01*
X156094188Y-114971286D01*
X156098969Y-114947253D01*
X156098969Y-114922749D01*
X156094189Y-114898715D01*
X156084812Y-114876076D01*
X156071198Y-114855702D01*
X156053871Y-114838375D01*
X156033497Y-114824761D01*
X156010869Y-114815388D01*
X155998121Y-114811521D01*
X155970945Y-114796995D01*
X155902400Y-114760357D01*
X155818499Y-114691501D01*
X155749643Y-114607600D01*
X155698481Y-114511882D01*
X155698479Y-114511879D01*
X155694612Y-114499131D01*
X155685240Y-114476504D01*
X155671626Y-114456130D01*
X155654299Y-114438803D01*
X155633925Y-114425189D01*
X155611286Y-114415812D01*
X155587253Y-114411031D01*
X155562749Y-114411031D01*
X155538715Y-114415811D01*
X155516076Y-114425188D01*
X155495702Y-114438802D01*
X155478375Y-114456129D01*
X155464761Y-114476503D01*
X155455388Y-114499131D01*
X155451521Y-114511879D01*
X155451519Y-114511882D01*
X155400357Y-114607600D01*
X155331501Y-114691501D01*
X155247600Y-114760357D01*
X155179055Y-114796995D01*
X155151879Y-114811521D01*
X155139131Y-114815388D01*
X155116504Y-114824760D01*
X155096130Y-114838374D01*
X155078803Y-114855701D01*
X155065189Y-114876075D01*
X155055812Y-114898714D01*
X155051031Y-114922747D01*
X154828969Y-114922747D01*
X154824189Y-114898715D01*
X154814812Y-114876076D01*
X154801198Y-114855702D01*
X154783871Y-114838375D01*
X154763497Y-114824761D01*
X154740869Y-114815388D01*
X154728121Y-114811521D01*
X154700945Y-114796995D01*
X154632400Y-114760357D01*
X154548499Y-114691501D01*
X154479643Y-114607600D01*
X154428481Y-114511882D01*
X154428479Y-114511879D01*
X154396973Y-114408015D01*
X154386334Y-114300000D01*
X154396973Y-114191985D01*
X154428479Y-114088121D01*
X154443005Y-114060945D01*
X154479643Y-113992400D01*
X154548499Y-113908499D01*
X154632400Y-113839643D01*
X154700945Y-113803005D01*
X154728121Y-113788479D01*
X154740869Y-113784612D01*
X154763496Y-113775240D01*
X154783870Y-113761626D01*
X154801197Y-113744299D01*
X154814811Y-113723925D01*
X154824188Y-113701286D01*
X154828969Y-113677253D01*
X154828969Y-113652749D01*
X154828969Y-113652747D01*
X155051031Y-113652747D01*
X155051031Y-113677251D01*
X155055811Y-113701285D01*
X155065188Y-113723924D01*
X155078802Y-113744298D01*
X155096129Y-113761625D01*
X155116503Y-113775239D01*
X155139131Y-113784612D01*
X155151879Y-113788479D01*
X155179055Y-113803005D01*
X155247600Y-113839643D01*
X155331501Y-113908499D01*
X155400357Y-113992400D01*
X155436995Y-114060945D01*
X155451521Y-114088121D01*
X155455388Y-114100869D01*
X155464760Y-114123496D01*
X155478374Y-114143870D01*
X155495701Y-114161197D01*
X155516075Y-114174811D01*
X155538714Y-114184188D01*
X155562747Y-114188969D01*
X155587251Y-114188969D01*
X155611285Y-114184189D01*
X155633924Y-114174812D01*
X155654298Y-114161198D01*
X155671625Y-114143871D01*
X155685239Y-114123497D01*
X155694612Y-114100869D01*
X155698479Y-114088121D01*
X155713005Y-114060945D01*
X155749643Y-113992400D01*
X155818499Y-113908499D01*
X155902400Y-113839643D01*
X155970945Y-113803005D01*
X155998121Y-113788479D01*
X156010869Y-113784612D01*
X156033496Y-113775240D01*
X156053870Y-113761626D01*
X156071197Y-113744299D01*
X156084811Y-113723925D01*
X156094188Y-113701286D01*
X156098969Y-113677253D01*
X156098969Y-113652749D01*
X156094189Y-113628715D01*
X156084812Y-113606076D01*
X156071198Y-113585702D01*
X156053871Y-113568375D01*
X156033497Y-113554761D01*
X156010869Y-113545388D01*
X155998121Y-113541521D01*
X155970945Y-113526995D01*
X155902400Y-113490357D01*
X155818499Y-113421501D01*
X155749643Y-113337600D01*
X155698481Y-113241882D01*
X155698479Y-113241879D01*
X155694612Y-113229131D01*
X155685240Y-113206504D01*
X155671626Y-113186130D01*
X155654299Y-113168803D01*
X155633925Y-113155189D01*
X155611286Y-113145812D01*
X155587253Y-113141031D01*
X155562749Y-113141031D01*
X155538715Y-113145811D01*
X155516076Y-113155188D01*
X155495702Y-113168802D01*
X155478375Y-113186129D01*
X155464761Y-113206503D01*
X155455388Y-113229131D01*
X155451521Y-113241879D01*
X155451519Y-113241882D01*
X155400357Y-113337600D01*
X155331501Y-113421501D01*
X155247600Y-113490357D01*
X155179055Y-113526995D01*
X155151879Y-113541521D01*
X155139131Y-113545388D01*
X155116504Y-113554760D01*
X155096130Y-113568374D01*
X155078803Y-113585701D01*
X155065189Y-113606075D01*
X155055812Y-113628714D01*
X155051031Y-113652747D01*
X154828969Y-113652747D01*
X154824189Y-113628715D01*
X154814812Y-113606076D01*
X154801198Y-113585702D01*
X154783871Y-113568375D01*
X154763497Y-113554761D01*
X154740869Y-113545388D01*
X154728121Y-113541521D01*
X154700945Y-113526995D01*
X154632400Y-113490357D01*
X154548499Y-113421501D01*
X154479643Y-113337600D01*
X154428481Y-113241882D01*
X154428479Y-113241879D01*
X154396973Y-113138015D01*
X154386334Y-113030000D01*
X154396973Y-112921985D01*
X154428479Y-112818121D01*
X154443005Y-112790945D01*
X154479643Y-112722400D01*
X154548499Y-112638499D01*
X154632400Y-112569643D01*
X154700945Y-112533005D01*
X154728121Y-112518479D01*
X154740869Y-112514612D01*
X154763496Y-112505240D01*
X154783870Y-112491626D01*
X154801197Y-112474299D01*
X154814811Y-112453925D01*
X154824188Y-112431286D01*
X154828969Y-112407253D01*
X154828969Y-112382749D01*
X154828969Y-112382747D01*
X155051031Y-112382747D01*
X155051031Y-112407251D01*
X155055811Y-112431285D01*
X155065188Y-112453924D01*
X155078802Y-112474298D01*
X155096129Y-112491625D01*
X155116503Y-112505239D01*
X155139131Y-112514612D01*
X155151879Y-112518479D01*
X155179055Y-112533005D01*
X155247600Y-112569643D01*
X155331501Y-112638499D01*
X155400357Y-112722400D01*
X155436995Y-112790945D01*
X155451521Y-112818121D01*
X155455388Y-112830869D01*
X155464760Y-112853496D01*
X155478374Y-112873870D01*
X155495701Y-112891197D01*
X155516075Y-112904811D01*
X155538714Y-112914188D01*
X155562747Y-112918969D01*
X155587251Y-112918969D01*
X155611285Y-112914189D01*
X155633924Y-112904812D01*
X155654298Y-112891198D01*
X155671625Y-112873871D01*
X155685239Y-112853497D01*
X155694612Y-112830869D01*
X155698479Y-112818121D01*
X155713005Y-112790945D01*
X155749643Y-112722400D01*
X155818499Y-112638499D01*
X155902400Y-112569643D01*
X155970945Y-112533005D01*
X155998121Y-112518479D01*
X156010869Y-112514612D01*
X156033496Y-112505240D01*
X156053870Y-112491626D01*
X156071197Y-112474299D01*
X156084811Y-112453925D01*
X156094188Y-112431286D01*
X156098969Y-112407253D01*
X156098969Y-112382749D01*
X156094189Y-112358715D01*
X156084812Y-112336076D01*
X156071198Y-112315702D01*
X156053871Y-112298375D01*
X156033497Y-112284761D01*
X156010869Y-112275388D01*
X155998121Y-112271521D01*
X155970945Y-112256995D01*
X155902400Y-112220357D01*
X155818499Y-112151501D01*
X155749643Y-112067600D01*
X155698481Y-111971882D01*
X155698479Y-111971879D01*
X155694612Y-111959131D01*
X155685240Y-111936504D01*
X155671626Y-111916130D01*
X155654299Y-111898803D01*
X155633925Y-111885189D01*
X155611286Y-111875812D01*
X155587253Y-111871031D01*
X155562749Y-111871031D01*
X155538715Y-111875811D01*
X155516076Y-111885188D01*
X155495702Y-111898802D01*
X155478375Y-111916129D01*
X155464761Y-111936503D01*
X155455388Y-111959131D01*
X155451521Y-111971879D01*
X155451519Y-111971882D01*
X155400357Y-112067600D01*
X155331501Y-112151501D01*
X155247600Y-112220357D01*
X155179055Y-112256995D01*
X155151879Y-112271521D01*
X155139131Y-112275388D01*
X155116504Y-112284760D01*
X155096130Y-112298374D01*
X155078803Y-112315701D01*
X155065189Y-112336075D01*
X155055812Y-112358714D01*
X155051031Y-112382747D01*
X154828969Y-112382747D01*
X154824189Y-112358715D01*
X154814812Y-112336076D01*
X154801198Y-112315702D01*
X154783871Y-112298375D01*
X154763497Y-112284761D01*
X154740869Y-112275388D01*
X154728121Y-112271521D01*
X154700945Y-112256995D01*
X154632400Y-112220357D01*
X154548499Y-112151501D01*
X154479643Y-112067600D01*
X154428481Y-111971882D01*
X154428479Y-111971879D01*
X154396973Y-111868015D01*
X154386334Y-111760000D01*
X154396973Y-111651985D01*
X154428479Y-111548121D01*
X154443005Y-111520945D01*
X154479643Y-111452400D01*
X154548499Y-111368499D01*
X154632400Y-111299643D01*
X154700945Y-111263005D01*
X154728121Y-111248479D01*
X154831985Y-111216973D01*
X154912933Y-111209000D01*
X154967067Y-111209000D01*
X155048015Y-111216973D01*
X155048015Y-111216973D01*
G37*
G36*
X172351000Y-115201000D02*
G01*
X170549000Y-115201000D01*
X170549000Y-113399000D01*
X172351000Y-113399000D01*
X172351000Y-115201000D01*
X172351000Y-115201000D01*
G37*
G36*
X169811000Y-115201000D02*
G01*
X168009000Y-115201000D01*
X168009000Y-113399000D01*
X169811000Y-113399000D01*
X169811000Y-115201000D01*
X169811000Y-115201000D01*
G37*
G36*
X172351000Y-112661000D02*
G01*
X170549000Y-112661000D01*
X170549000Y-110859000D01*
X172351000Y-110859000D01*
X172351000Y-112661000D01*
X172351000Y-112661000D01*
G37*
G36*
X169811000Y-112661000D02*
G01*
X168009000Y-112661000D01*
X168009000Y-110859000D01*
X169811000Y-110859000D01*
X169811000Y-112661000D01*
X169811000Y-112661000D01*
G37*
G36*
X169811000Y-110121000D02*
G01*
X168009000Y-110121000D01*
X168009000Y-108319000D01*
X169811000Y-108319000D01*
X169811000Y-110121000D01*
X169811000Y-110121000D01*
G37*
G36*
X172351000Y-110121000D02*
G01*
X170549000Y-110121000D01*
X170549000Y-108319000D01*
X172351000Y-108319000D01*
X172351000Y-110121000D01*
X172351000Y-110121000D01*
G37*
M02*
