G04 #@! TF.GenerationSoftware,KiCad,Pcbnew,(5.1.4)-1*
G04 #@! TF.CreationDate,2020-01-13T04:09:21-05:00*
G04 #@! TF.ProjectId,SRXBreakout,53525842-7265-4616-9b6f-75742e6b6963,rev?*
G04 #@! TF.SameCoordinates,Original*
G04 #@! TF.FileFunction,Legend,Top*
G04 #@! TF.FilePolarity,Positive*
%FSLAX46Y46*%
G04 Gerber Fmt 4.6, Leading zero omitted, Abs format (unit mm)*
G04 Created by KiCad (PCBNEW (5.1.4)-1) date 2020-01-13 04:09:21*
%MOMM*%
%LPD*%
G04 APERTURE LIST*
%ADD10C,0.125000*%
%ADD11C,0.250000*%
%ADD12C,0.120000*%
%ADD13C,0.010000*%
%ADD14C,0.150000*%
G04 APERTURE END LIST*
D10*
X159746190Y-110402666D02*
X160246190Y-110069333D01*
X159746190Y-110069333D02*
X160246190Y-110402666D01*
X160000190Y-118022666D02*
X160500190Y-117689333D01*
X160000190Y-117689333D02*
X160500190Y-118022666D01*
D11*
X163636214Y-119832380D02*
X163636214Y-118832380D01*
X164112404Y-119165714D02*
X164112404Y-119832380D01*
X164112404Y-119260952D02*
X164160023Y-119213333D01*
X164255261Y-119165714D01*
X164398119Y-119165714D01*
X164493357Y-119213333D01*
X164540976Y-119308571D01*
X164540976Y-119832380D01*
X165445738Y-119832380D02*
X165445738Y-118832380D01*
X165445738Y-119784761D02*
X165350500Y-119832380D01*
X165160023Y-119832380D01*
X165064785Y-119784761D01*
X165017166Y-119737142D01*
X164969547Y-119641904D01*
X164969547Y-119356190D01*
X165017166Y-119260952D01*
X165064785Y-119213333D01*
X165160023Y-119165714D01*
X165350500Y-119165714D01*
X165445738Y-119213333D01*
X166302880Y-119784761D02*
X166207642Y-119832380D01*
X166017166Y-119832380D01*
X165921928Y-119784761D01*
X165874309Y-119689523D01*
X165874309Y-119308571D01*
X165921928Y-119213333D01*
X166017166Y-119165714D01*
X166207642Y-119165714D01*
X166302880Y-119213333D01*
X166350500Y-119308571D01*
X166350500Y-119403809D01*
X165874309Y-119499047D01*
X166683833Y-119832380D02*
X167207642Y-119165714D01*
X166683833Y-119165714D02*
X167207642Y-119832380D01*
X162286785Y-109148571D02*
X162620119Y-109148571D01*
X162762976Y-109672380D02*
X162286785Y-109672380D01*
X162286785Y-108672380D01*
X162762976Y-108672380D01*
X163191547Y-109005714D02*
X163191547Y-109672380D01*
X163191547Y-109100952D02*
X163239166Y-109053333D01*
X163334404Y-109005714D01*
X163477261Y-109005714D01*
X163572500Y-109053333D01*
X163620119Y-109148571D01*
X163620119Y-109672380D01*
X164524880Y-109624761D02*
X164429642Y-109672380D01*
X164239166Y-109672380D01*
X164143928Y-109624761D01*
X164096309Y-109577142D01*
X164048690Y-109481904D01*
X164048690Y-109196190D01*
X164096309Y-109100952D01*
X164143928Y-109053333D01*
X164239166Y-109005714D01*
X164429642Y-109005714D01*
X164524880Y-109053333D01*
X164905833Y-109386666D02*
X165382023Y-109386666D01*
X164810595Y-109672380D02*
X165143928Y-108672380D01*
X165477261Y-109672380D01*
X161572500Y-111688571D02*
X161239166Y-111688571D01*
X161239166Y-112212380D02*
X161239166Y-111212380D01*
X161715357Y-111212380D01*
X162001071Y-111545714D02*
X162191547Y-112212380D01*
X162382023Y-111736190D01*
X162572500Y-112212380D01*
X162762976Y-111545714D01*
X163572500Y-112212380D02*
X163572500Y-111212380D01*
X163572500Y-112164761D02*
X163477261Y-112212380D01*
X163286785Y-112212380D01*
X163191547Y-112164761D01*
X163143928Y-112117142D01*
X163096309Y-112021904D01*
X163096309Y-111736190D01*
X163143928Y-111640952D01*
X163191547Y-111593333D01*
X163286785Y-111545714D01*
X163477261Y-111545714D01*
X163572500Y-111593333D01*
X164524880Y-112212380D02*
X164048690Y-112212380D01*
X164048690Y-111212380D01*
X164810595Y-112164761D02*
X164953452Y-112212380D01*
X165191547Y-112212380D01*
X165286785Y-112164761D01*
X165334404Y-112117142D01*
X165382023Y-112021904D01*
X165382023Y-111926666D01*
X165334404Y-111831428D01*
X165286785Y-111783809D01*
X165191547Y-111736190D01*
X165001071Y-111688571D01*
X164905833Y-111640952D01*
X164858214Y-111593333D01*
X164810595Y-111498095D01*
X164810595Y-111402857D01*
X164858214Y-111307619D01*
X164905833Y-111260000D01*
X165001071Y-111212380D01*
X165239166Y-111212380D01*
X165382023Y-111260000D01*
X162001071Y-114752380D02*
X161667738Y-114276190D01*
X161429642Y-114752380D02*
X161429642Y-113752380D01*
X161810595Y-113752380D01*
X161905833Y-113800000D01*
X161953452Y-113847619D01*
X162001071Y-113942857D01*
X162001071Y-114085714D01*
X161953452Y-114180952D01*
X161905833Y-114228571D01*
X161810595Y-114276190D01*
X161429642Y-114276190D01*
X162810595Y-114704761D02*
X162715357Y-114752380D01*
X162524880Y-114752380D01*
X162429642Y-114704761D01*
X162382023Y-114609523D01*
X162382023Y-114228571D01*
X162429642Y-114133333D01*
X162524880Y-114085714D01*
X162715357Y-114085714D01*
X162810595Y-114133333D01*
X162858214Y-114228571D01*
X162858214Y-114323809D01*
X162382023Y-114419047D01*
X163191547Y-114085714D02*
X163429642Y-114752380D01*
X163667738Y-114085714D01*
X164524880Y-114752380D02*
X164048690Y-114752380D01*
X164048690Y-113752380D01*
X164810595Y-114704761D02*
X164953452Y-114752380D01*
X165191547Y-114752380D01*
X165286785Y-114704761D01*
X165334404Y-114657142D01*
X165382023Y-114561904D01*
X165382023Y-114466666D01*
X165334404Y-114371428D01*
X165286785Y-114323809D01*
X165191547Y-114276190D01*
X165001071Y-114228571D01*
X164905833Y-114180952D01*
X164858214Y-114133333D01*
X164810595Y-114038095D01*
X164810595Y-113942857D01*
X164858214Y-113847619D01*
X164905833Y-113800000D01*
X165001071Y-113752380D01*
X165239166Y-113752380D01*
X165382023Y-113800000D01*
X162143928Y-116768571D02*
X162477261Y-116768571D01*
X162620119Y-117292380D02*
X162143928Y-117292380D01*
X162143928Y-116292380D01*
X162620119Y-116292380D01*
X163048690Y-116625714D02*
X163048690Y-117292380D01*
X163048690Y-116720952D02*
X163096309Y-116673333D01*
X163191547Y-116625714D01*
X163334404Y-116625714D01*
X163429642Y-116673333D01*
X163477261Y-116768571D01*
X163477261Y-117292380D01*
X164382023Y-117244761D02*
X164286785Y-117292380D01*
X164096309Y-117292380D01*
X164001071Y-117244761D01*
X163953452Y-117197142D01*
X163905833Y-117101904D01*
X163905833Y-116816190D01*
X163953452Y-116720952D01*
X164001071Y-116673333D01*
X164096309Y-116625714D01*
X164286785Y-116625714D01*
X164382023Y-116673333D01*
X165143928Y-116768571D02*
X165286785Y-116816190D01*
X165334404Y-116863809D01*
X165382023Y-116959047D01*
X165382023Y-117101904D01*
X165334404Y-117197142D01*
X165286785Y-117244761D01*
X165191547Y-117292380D01*
X164810595Y-117292380D01*
X164810595Y-116292380D01*
X165143928Y-116292380D01*
X165239166Y-116340000D01*
X165286785Y-116387619D01*
X165334404Y-116482857D01*
X165334404Y-116578095D01*
X165286785Y-116673333D01*
X165239166Y-116720952D01*
X165143928Y-116768571D01*
X164810595Y-116768571D01*
X174977976Y-117006666D02*
X175454166Y-117006666D01*
X174882738Y-117292380D02*
X175216071Y-116292380D01*
X175549404Y-117292380D01*
X175882738Y-117292380D02*
X175882738Y-116292380D01*
X176454166Y-117292380D01*
X176454166Y-116292380D01*
X176882738Y-117006666D02*
X177358928Y-117006666D01*
X176787500Y-117292380D02*
X177120833Y-116292380D01*
X177454166Y-117292380D01*
X175501785Y-113752380D02*
X175025595Y-113752380D01*
X174977976Y-114228571D01*
X175025595Y-114180952D01*
X175120833Y-114133333D01*
X175358928Y-114133333D01*
X175454166Y-114180952D01*
X175501785Y-114228571D01*
X175549404Y-114323809D01*
X175549404Y-114561904D01*
X175501785Y-114657142D01*
X175454166Y-114704761D01*
X175358928Y-114752380D01*
X175120833Y-114752380D01*
X175025595Y-114704761D01*
X174977976Y-114657142D01*
X175835119Y-113752380D02*
X176168452Y-114752380D01*
X176501785Y-113752380D01*
X175549404Y-111260000D02*
X175454166Y-111212380D01*
X175311309Y-111212380D01*
X175168452Y-111260000D01*
X175073214Y-111355238D01*
X175025595Y-111450476D01*
X174977976Y-111640952D01*
X174977976Y-111783809D01*
X175025595Y-111974285D01*
X175073214Y-112069523D01*
X175168452Y-112164761D01*
X175311309Y-112212380D01*
X175406547Y-112212380D01*
X175549404Y-112164761D01*
X175597023Y-112117142D01*
X175597023Y-111783809D01*
X175406547Y-111783809D01*
X176025595Y-112212380D02*
X176025595Y-111212380D01*
X176597023Y-112212380D01*
X176597023Y-111212380D01*
X177073214Y-112212380D02*
X177073214Y-111212380D01*
X177311309Y-111212380D01*
X177454166Y-111260000D01*
X177549404Y-111355238D01*
X177597023Y-111450476D01*
X177644642Y-111640952D01*
X177644642Y-111783809D01*
X177597023Y-111974285D01*
X177549404Y-112069523D01*
X177454166Y-112164761D01*
X177311309Y-112212380D01*
X177073214Y-112212380D01*
X174930357Y-108672380D02*
X175549404Y-108672380D01*
X175216071Y-109053333D01*
X175358928Y-109053333D01*
X175454166Y-109100952D01*
X175501785Y-109148571D01*
X175549404Y-109243809D01*
X175549404Y-109481904D01*
X175501785Y-109577142D01*
X175454166Y-109624761D01*
X175358928Y-109672380D01*
X175073214Y-109672380D01*
X174977976Y-109624761D01*
X174930357Y-109577142D01*
X175977976Y-109577142D02*
X176025595Y-109624761D01*
X175977976Y-109672380D01*
X175930357Y-109624761D01*
X175977976Y-109577142D01*
X175977976Y-109672380D01*
X176358928Y-108672380D02*
X176977976Y-108672380D01*
X176644642Y-109053333D01*
X176787500Y-109053333D01*
X176882738Y-109100952D01*
X176930357Y-109148571D01*
X176977976Y-109243809D01*
X176977976Y-109481904D01*
X176930357Y-109577142D01*
X176882738Y-109624761D01*
X176787500Y-109672380D01*
X176501785Y-109672380D01*
X176406547Y-109624761D01*
X176358928Y-109577142D01*
D12*
X157340000Y-111065000D02*
X156517530Y-111065000D01*
X154632470Y-111065000D02*
X153810000Y-111065000D01*
X155902470Y-111065000D02*
X155247530Y-111065000D01*
X157340000Y-116080000D02*
X157340000Y-111065000D01*
X153810000Y-117535000D02*
X153810000Y-111065000D01*
X157340000Y-116080000D02*
X156773471Y-116080000D01*
X155646529Y-116080000D02*
X155503471Y-116080000D01*
X155450000Y-116133471D02*
X155450000Y-116276529D01*
X155450000Y-117403471D02*
X155450000Y-117535000D01*
X155450000Y-117535000D02*
X155247530Y-117535000D01*
X154632470Y-117535000D02*
X153810000Y-117535000D01*
X157340000Y-116840000D02*
X157340000Y-117600000D01*
X157340000Y-117600000D02*
X156210000Y-117600000D01*
X167580000Y-107890000D02*
X172780000Y-107890000D01*
X167580000Y-118170000D02*
X172780000Y-118170000D01*
X166140000Y-108460000D02*
X167580000Y-108460000D01*
X167580000Y-107890000D02*
X167580000Y-108460000D01*
X172780000Y-107890000D02*
X172780000Y-108460000D01*
X167580000Y-117600000D02*
X167580000Y-118170000D01*
X172780000Y-117600000D02*
X172780000Y-118170000D01*
X167580000Y-109980000D02*
X167580000Y-111000000D01*
X172780000Y-109980000D02*
X172780000Y-111000000D01*
X167580000Y-112520000D02*
X167580000Y-113540000D01*
X172780000Y-112520000D02*
X172780000Y-113540000D01*
X167580000Y-115060000D02*
X167580000Y-116080000D01*
X172780000Y-115060000D02*
X172780000Y-116080000D01*
D13*
G36*
X174685127Y-119228519D02*
G01*
X174791935Y-119256011D01*
X174943830Y-119300505D01*
X175068633Y-119339539D01*
X175256970Y-119399580D01*
X175377544Y-119445405D01*
X175441774Y-119492773D01*
X175461079Y-119557443D01*
X175446881Y-119655173D01*
X175410597Y-119801722D01*
X175408809Y-119808978D01*
X175405521Y-119874366D01*
X175442582Y-119932592D01*
X175534883Y-120002639D01*
X175586680Y-120035769D01*
X175738482Y-120139318D01*
X175890524Y-120256247D01*
X175948363Y-120305682D01*
X176107560Y-120448993D01*
X176275539Y-120337830D01*
X176380997Y-120272503D01*
X176457387Y-120233271D01*
X176476176Y-120228062D01*
X176513490Y-120260700D01*
X176587746Y-120347503D01*
X176686734Y-120473694D01*
X176758232Y-120569401D01*
X177007630Y-120909345D01*
X176847236Y-121073604D01*
X176686841Y-121237863D01*
X176772589Y-121441348D01*
X176835823Y-121612276D01*
X176893432Y-121801466D01*
X176910057Y-121867083D01*
X176961778Y-122089333D01*
X177334333Y-122089333D01*
X177334333Y-123020667D01*
X177164092Y-123020667D01*
X177046280Y-123030364D01*
X176983975Y-123068076D01*
X176959273Y-123115917D01*
X176929863Y-123199803D01*
X176882514Y-123337859D01*
X176826167Y-123503967D01*
X176810707Y-123549833D01*
X176696719Y-123888500D01*
X176846193Y-124019986D01*
X176934497Y-124103045D01*
X176988153Y-124163891D01*
X176995667Y-124179145D01*
X176972694Y-124219727D01*
X176912037Y-124310970D01*
X176826091Y-124435265D01*
X176727250Y-124575003D01*
X176627906Y-124712576D01*
X176540454Y-124830375D01*
X176503854Y-124877893D01*
X176463870Y-124867410D01*
X176374746Y-124823510D01*
X176303039Y-124783179D01*
X176114587Y-124672739D01*
X175909543Y-124843636D01*
X175768938Y-124953691D01*
X175625023Y-125055281D01*
X175544485Y-125105605D01*
X175439862Y-125180896D01*
X175404761Y-125244750D01*
X175406993Y-125255374D01*
X175428495Y-125334870D01*
X175451571Y-125452479D01*
X175454408Y-125469732D01*
X175479300Y-125625396D01*
X175105066Y-125746935D01*
X174936178Y-125802013D01*
X174796550Y-125847973D01*
X174706740Y-125878027D01*
X174687040Y-125884932D01*
X174648091Y-125859154D01*
X174599565Y-125775010D01*
X174577272Y-125720445D01*
X174511298Y-125539500D01*
X173553368Y-125539500D01*
X173487769Y-125719417D01*
X173444080Y-125825832D01*
X173409054Y-125887972D01*
X173399168Y-125894906D01*
X173351483Y-125880878D01*
X173241768Y-125846707D01*
X173088581Y-125798209D01*
X172979880Y-125763486D01*
X172583593Y-125636492D01*
X172609371Y-125475280D01*
X172632649Y-125352432D01*
X172656475Y-125259296D01*
X172659920Y-125249519D01*
X172646309Y-125188205D01*
X172555961Y-125119964D01*
X172522428Y-125101996D01*
X172399376Y-125026634D01*
X172253905Y-124920205D01*
X172158793Y-124841491D01*
X171957420Y-124663961D01*
X171763887Y-124777379D01*
X171654023Y-124838144D01*
X171578619Y-124873032D01*
X171558632Y-124876482D01*
X171489738Y-124787557D01*
X171399608Y-124664890D01*
X171300862Y-124526522D01*
X171206119Y-124390491D01*
X171127997Y-124274838D01*
X171079115Y-124197602D01*
X171068998Y-124176503D01*
X171098780Y-124131584D01*
X171174467Y-124055799D01*
X171225161Y-124011387D01*
X171381327Y-123880275D01*
X171293828Y-123672721D01*
X171229351Y-123498791D01*
X171171039Y-123307729D01*
X171154609Y-123242917D01*
X171102888Y-123020667D01*
X170688000Y-123020667D01*
X170688000Y-122675904D01*
X171575618Y-122675904D01*
X171626227Y-123087473D01*
X171644106Y-123162723D01*
X171792915Y-123574570D01*
X172013583Y-123952093D01*
X172297240Y-124286497D01*
X172635019Y-124568986D01*
X173018051Y-124790764D01*
X173437469Y-124943034D01*
X173439667Y-124943612D01*
X173675601Y-124985394D01*
X173956361Y-125004601D01*
X174244986Y-125000547D01*
X174504512Y-124972547D01*
X174548833Y-124964186D01*
X174945861Y-124840990D01*
X175322976Y-124644124D01*
X175666270Y-124384371D01*
X175961837Y-124072513D01*
X176195769Y-123719334D01*
X176223552Y-123665721D01*
X176351227Y-123381006D01*
X176432765Y-123117146D01*
X176474336Y-122843706D01*
X176482113Y-122530253D01*
X176478195Y-122410058D01*
X176428216Y-121978440D01*
X176314095Y-121592105D01*
X176129758Y-121237435D01*
X175869132Y-120900812D01*
X175749083Y-120775048D01*
X175448990Y-120527953D01*
X175096028Y-120323548D01*
X174712751Y-120171205D01*
X174321710Y-120080295D01*
X174023535Y-120058068D01*
X173605610Y-120100688D01*
X173196236Y-120219770D01*
X172808318Y-120407224D01*
X172454762Y-120654958D01*
X172148473Y-120954881D01*
X171902355Y-121298900D01*
X171830388Y-121433167D01*
X171680169Y-121825818D01*
X171594422Y-122247708D01*
X171575618Y-122675904D01*
X170688000Y-122675904D01*
X170688000Y-122093972D01*
X170889083Y-122081069D01*
X171011548Y-122069257D01*
X171078108Y-122039185D01*
X171117407Y-121968106D01*
X171145221Y-121877667D01*
X171194094Y-121723658D01*
X171256744Y-121545308D01*
X171289628Y-121458218D01*
X171378981Y-121229270D01*
X171223990Y-121087232D01*
X171134647Y-121001017D01*
X171078639Y-120938624D01*
X171069000Y-120921631D01*
X171092718Y-120874407D01*
X171154955Y-120780352D01*
X171242333Y-120657385D01*
X171341475Y-120523424D01*
X171439001Y-120396386D01*
X171521535Y-120294190D01*
X171575699Y-120234753D01*
X171587869Y-120226667D01*
X171640147Y-120248258D01*
X171734849Y-120303022D01*
X171789127Y-120337830D01*
X171957106Y-120448993D01*
X172121611Y-120300372D01*
X172262899Y-120185801D01*
X172424905Y-120072348D01*
X172484329Y-120035591D01*
X172613341Y-119946300D01*
X172661079Y-119877042D01*
X172658846Y-119857681D01*
X172636784Y-119776641D01*
X172613028Y-119656760D01*
X172609228Y-119633825D01*
X172583307Y-119471719D01*
X172979737Y-119344252D01*
X173175385Y-119283819D01*
X173307510Y-119254154D01*
X173392508Y-119258071D01*
X173446777Y-119298387D01*
X173486712Y-119377917D01*
X173506943Y-119434782D01*
X173553054Y-119570500D01*
X174510646Y-119570500D01*
X174568170Y-119404348D01*
X174607395Y-119297411D01*
X174635924Y-119230923D01*
X174641047Y-119222842D01*
X174685127Y-119228519D01*
X174685127Y-119228519D01*
G37*
X174685127Y-119228519D02*
X174791935Y-119256011D01*
X174943830Y-119300505D01*
X175068633Y-119339539D01*
X175256970Y-119399580D01*
X175377544Y-119445405D01*
X175441774Y-119492773D01*
X175461079Y-119557443D01*
X175446881Y-119655173D01*
X175410597Y-119801722D01*
X175408809Y-119808978D01*
X175405521Y-119874366D01*
X175442582Y-119932592D01*
X175534883Y-120002639D01*
X175586680Y-120035769D01*
X175738482Y-120139318D01*
X175890524Y-120256247D01*
X175948363Y-120305682D01*
X176107560Y-120448993D01*
X176275539Y-120337830D01*
X176380997Y-120272503D01*
X176457387Y-120233271D01*
X176476176Y-120228062D01*
X176513490Y-120260700D01*
X176587746Y-120347503D01*
X176686734Y-120473694D01*
X176758232Y-120569401D01*
X177007630Y-120909345D01*
X176847236Y-121073604D01*
X176686841Y-121237863D01*
X176772589Y-121441348D01*
X176835823Y-121612276D01*
X176893432Y-121801466D01*
X176910057Y-121867083D01*
X176961778Y-122089333D01*
X177334333Y-122089333D01*
X177334333Y-123020667D01*
X177164092Y-123020667D01*
X177046280Y-123030364D01*
X176983975Y-123068076D01*
X176959273Y-123115917D01*
X176929863Y-123199803D01*
X176882514Y-123337859D01*
X176826167Y-123503967D01*
X176810707Y-123549833D01*
X176696719Y-123888500D01*
X176846193Y-124019986D01*
X176934497Y-124103045D01*
X176988153Y-124163891D01*
X176995667Y-124179145D01*
X176972694Y-124219727D01*
X176912037Y-124310970D01*
X176826091Y-124435265D01*
X176727250Y-124575003D01*
X176627906Y-124712576D01*
X176540454Y-124830375D01*
X176503854Y-124877893D01*
X176463870Y-124867410D01*
X176374746Y-124823510D01*
X176303039Y-124783179D01*
X176114587Y-124672739D01*
X175909543Y-124843636D01*
X175768938Y-124953691D01*
X175625023Y-125055281D01*
X175544485Y-125105605D01*
X175439862Y-125180896D01*
X175404761Y-125244750D01*
X175406993Y-125255374D01*
X175428495Y-125334870D01*
X175451571Y-125452479D01*
X175454408Y-125469732D01*
X175479300Y-125625396D01*
X175105066Y-125746935D01*
X174936178Y-125802013D01*
X174796550Y-125847973D01*
X174706740Y-125878027D01*
X174687040Y-125884932D01*
X174648091Y-125859154D01*
X174599565Y-125775010D01*
X174577272Y-125720445D01*
X174511298Y-125539500D01*
X173553368Y-125539500D01*
X173487769Y-125719417D01*
X173444080Y-125825832D01*
X173409054Y-125887972D01*
X173399168Y-125894906D01*
X173351483Y-125880878D01*
X173241768Y-125846707D01*
X173088581Y-125798209D01*
X172979880Y-125763486D01*
X172583593Y-125636492D01*
X172609371Y-125475280D01*
X172632649Y-125352432D01*
X172656475Y-125259296D01*
X172659920Y-125249519D01*
X172646309Y-125188205D01*
X172555961Y-125119964D01*
X172522428Y-125101996D01*
X172399376Y-125026634D01*
X172253905Y-124920205D01*
X172158793Y-124841491D01*
X171957420Y-124663961D01*
X171763887Y-124777379D01*
X171654023Y-124838144D01*
X171578619Y-124873032D01*
X171558632Y-124876482D01*
X171489738Y-124787557D01*
X171399608Y-124664890D01*
X171300862Y-124526522D01*
X171206119Y-124390491D01*
X171127997Y-124274838D01*
X171079115Y-124197602D01*
X171068998Y-124176503D01*
X171098780Y-124131584D01*
X171174467Y-124055799D01*
X171225161Y-124011387D01*
X171381327Y-123880275D01*
X171293828Y-123672721D01*
X171229351Y-123498791D01*
X171171039Y-123307729D01*
X171154609Y-123242917D01*
X171102888Y-123020667D01*
X170688000Y-123020667D01*
X170688000Y-122675904D01*
X171575618Y-122675904D01*
X171626227Y-123087473D01*
X171644106Y-123162723D01*
X171792915Y-123574570D01*
X172013583Y-123952093D01*
X172297240Y-124286497D01*
X172635019Y-124568986D01*
X173018051Y-124790764D01*
X173437469Y-124943034D01*
X173439667Y-124943612D01*
X173675601Y-124985394D01*
X173956361Y-125004601D01*
X174244986Y-125000547D01*
X174504512Y-124972547D01*
X174548833Y-124964186D01*
X174945861Y-124840990D01*
X175322976Y-124644124D01*
X175666270Y-124384371D01*
X175961837Y-124072513D01*
X176195769Y-123719334D01*
X176223552Y-123665721D01*
X176351227Y-123381006D01*
X176432765Y-123117146D01*
X176474336Y-122843706D01*
X176482113Y-122530253D01*
X176478195Y-122410058D01*
X176428216Y-121978440D01*
X176314095Y-121592105D01*
X176129758Y-121237435D01*
X175869132Y-120900812D01*
X175749083Y-120775048D01*
X175448990Y-120527953D01*
X175096028Y-120323548D01*
X174712751Y-120171205D01*
X174321710Y-120080295D01*
X174023535Y-120058068D01*
X173605610Y-120100688D01*
X173196236Y-120219770D01*
X172808318Y-120407224D01*
X172454762Y-120654958D01*
X172148473Y-120954881D01*
X171902355Y-121298900D01*
X171830388Y-121433167D01*
X171680169Y-121825818D01*
X171594422Y-122247708D01*
X171575618Y-122675904D01*
X170688000Y-122675904D01*
X170688000Y-122093972D01*
X170889083Y-122081069D01*
X171011548Y-122069257D01*
X171078108Y-122039185D01*
X171117407Y-121968106D01*
X171145221Y-121877667D01*
X171194094Y-121723658D01*
X171256744Y-121545308D01*
X171289628Y-121458218D01*
X171378981Y-121229270D01*
X171223990Y-121087232D01*
X171134647Y-121001017D01*
X171078639Y-120938624D01*
X171069000Y-120921631D01*
X171092718Y-120874407D01*
X171154955Y-120780352D01*
X171242333Y-120657385D01*
X171341475Y-120523424D01*
X171439001Y-120396386D01*
X171521535Y-120294190D01*
X171575699Y-120234753D01*
X171587869Y-120226667D01*
X171640147Y-120248258D01*
X171734849Y-120303022D01*
X171789127Y-120337830D01*
X171957106Y-120448993D01*
X172121611Y-120300372D01*
X172262899Y-120185801D01*
X172424905Y-120072348D01*
X172484329Y-120035591D01*
X172613341Y-119946300D01*
X172661079Y-119877042D01*
X172658846Y-119857681D01*
X172636784Y-119776641D01*
X172613028Y-119656760D01*
X172609228Y-119633825D01*
X172583307Y-119471719D01*
X172979737Y-119344252D01*
X173175385Y-119283819D01*
X173307510Y-119254154D01*
X173392508Y-119258071D01*
X173446777Y-119298387D01*
X173486712Y-119377917D01*
X173506943Y-119434782D01*
X173553054Y-119570500D01*
X174510646Y-119570500D01*
X174568170Y-119404348D01*
X174607395Y-119297411D01*
X174635924Y-119230923D01*
X174641047Y-119222842D01*
X174685127Y-119228519D01*
G36*
X174162979Y-120443661D02*
G01*
X174295443Y-120464481D01*
X174371877Y-120508051D01*
X174406398Y-120581626D01*
X174413333Y-120671166D01*
X174390390Y-120804638D01*
X174314099Y-120880006D01*
X174173267Y-120907804D01*
X174161450Y-120908220D01*
X174024982Y-120921044D01*
X173906288Y-120946029D01*
X173905333Y-120946333D01*
X173874262Y-120964459D01*
X173917796Y-120976469D01*
X174040135Y-120983158D01*
X174106417Y-120984447D01*
X174265603Y-120988850D01*
X174357927Y-121000035D01*
X174401173Y-121023152D01*
X174413131Y-121063353D01*
X174413333Y-121073333D01*
X174407523Y-121111868D01*
X174379876Y-121136537D01*
X174315069Y-121150404D01*
X174197775Y-121156534D01*
X174012672Y-121157993D01*
X173990000Y-121158000D01*
X173566667Y-121158000D01*
X173567315Y-121020417D01*
X173579554Y-120891216D01*
X173625680Y-120811160D01*
X173722042Y-120766724D01*
X173884990Y-120744386D01*
X173902646Y-120743057D01*
X174042464Y-120727544D01*
X174145062Y-120706091D01*
X174183675Y-120687196D01*
X174162362Y-120660967D01*
X174061931Y-120646746D01*
X173887134Y-120644967D01*
X173767750Y-120649135D01*
X173663502Y-120647925D01*
X173618764Y-120620669D01*
X173609009Y-120551653D01*
X173609000Y-120547404D01*
X173612073Y-120494092D01*
X173632605Y-120461796D01*
X173687561Y-120445249D01*
X173793908Y-120439183D01*
X173960367Y-120438333D01*
X174162979Y-120443661D01*
X174162979Y-120443661D01*
G37*
X174162979Y-120443661D02*
X174295443Y-120464481D01*
X174371877Y-120508051D01*
X174406398Y-120581626D01*
X174413333Y-120671166D01*
X174390390Y-120804638D01*
X174314099Y-120880006D01*
X174173267Y-120907804D01*
X174161450Y-120908220D01*
X174024982Y-120921044D01*
X173906288Y-120946029D01*
X173905333Y-120946333D01*
X173874262Y-120964459D01*
X173917796Y-120976469D01*
X174040135Y-120983158D01*
X174106417Y-120984447D01*
X174265603Y-120988850D01*
X174357927Y-121000035D01*
X174401173Y-121023152D01*
X174413131Y-121063353D01*
X174413333Y-121073333D01*
X174407523Y-121111868D01*
X174379876Y-121136537D01*
X174315069Y-121150404D01*
X174197775Y-121156534D01*
X174012672Y-121157993D01*
X173990000Y-121158000D01*
X173566667Y-121158000D01*
X173567315Y-121020417D01*
X173579554Y-120891216D01*
X173625680Y-120811160D01*
X173722042Y-120766724D01*
X173884990Y-120744386D01*
X173902646Y-120743057D01*
X174042464Y-120727544D01*
X174145062Y-120706091D01*
X174183675Y-120687196D01*
X174162362Y-120660967D01*
X174061931Y-120646746D01*
X173887134Y-120644967D01*
X173767750Y-120649135D01*
X173663502Y-120647925D01*
X173618764Y-120620669D01*
X173609009Y-120551653D01*
X173609000Y-120547404D01*
X173612073Y-120494092D01*
X173632605Y-120461796D01*
X173687561Y-120445249D01*
X173793908Y-120439183D01*
X173960367Y-120438333D01*
X174162979Y-120443661D01*
G36*
X174201667Y-122174000D02*
G01*
X173947667Y-122174000D01*
X173947667Y-121920000D01*
X173944529Y-121778040D01*
X173930871Y-121701330D01*
X173900323Y-121670557D01*
X173863907Y-121666000D01*
X173807968Y-121656389D01*
X173807072Y-121611460D01*
X173828369Y-121560167D01*
X173879022Y-121487537D01*
X173961559Y-121458018D01*
X174039128Y-121454333D01*
X174201667Y-121454333D01*
X174201667Y-122174000D01*
X174201667Y-122174000D01*
G37*
X174201667Y-122174000D02*
X173947667Y-122174000D01*
X173947667Y-121920000D01*
X173944529Y-121778040D01*
X173930871Y-121701330D01*
X173900323Y-121670557D01*
X173863907Y-121666000D01*
X173807968Y-121656389D01*
X173807072Y-121611460D01*
X173828369Y-121560167D01*
X173879022Y-121487537D01*
X173961559Y-121458018D01*
X174039128Y-121454333D01*
X174201667Y-121454333D01*
X174201667Y-122174000D01*
G36*
X174214994Y-122471652D02*
G01*
X174309658Y-122479572D01*
X174355326Y-122500038D01*
X174369833Y-122538994D01*
X174371000Y-122576167D01*
X174366155Y-122632353D01*
X174339109Y-122664584D01*
X174271091Y-122680191D01*
X174143332Y-122686505D01*
X174085250Y-122687792D01*
X173799500Y-122693584D01*
X174068434Y-122724083D01*
X174221897Y-122749829D01*
X174332885Y-122784621D01*
X174374702Y-122813541D01*
X174408302Y-122919764D01*
X174404997Y-123042025D01*
X174366483Y-123134983D01*
X174362533Y-123139200D01*
X174295077Y-123164790D01*
X174170785Y-123181453D01*
X174017063Y-123188733D01*
X173861316Y-123186178D01*
X173730951Y-123173334D01*
X173655139Y-123150915D01*
X173615988Y-123086631D01*
X173589741Y-122978333D01*
X173820667Y-122978333D01*
X173858504Y-123003580D01*
X173954235Y-123018724D01*
X174011167Y-123020667D01*
X174124776Y-123012258D01*
X174192925Y-122990985D01*
X174201667Y-122978333D01*
X174163829Y-122953087D01*
X174068098Y-122937942D01*
X174011167Y-122936000D01*
X173897557Y-122944408D01*
X173829408Y-122965682D01*
X173820667Y-122978333D01*
X173589741Y-122978333D01*
X173585950Y-122962691D01*
X173576215Y-122881237D01*
X173570140Y-122736286D01*
X173586417Y-122644366D01*
X173631640Y-122575320D01*
X173646492Y-122559841D01*
X173707860Y-122512135D01*
X173788397Y-122484772D01*
X173911536Y-122472599D01*
X174053500Y-122470333D01*
X174214994Y-122471652D01*
X174214994Y-122471652D01*
G37*
X174214994Y-122471652D02*
X174309658Y-122479572D01*
X174355326Y-122500038D01*
X174369833Y-122538994D01*
X174371000Y-122576167D01*
X174366155Y-122632353D01*
X174339109Y-122664584D01*
X174271091Y-122680191D01*
X174143332Y-122686505D01*
X174085250Y-122687792D01*
X173799500Y-122693584D01*
X174068434Y-122724083D01*
X174221897Y-122749829D01*
X174332885Y-122784621D01*
X174374702Y-122813541D01*
X174408302Y-122919764D01*
X174404997Y-123042025D01*
X174366483Y-123134983D01*
X174362533Y-123139200D01*
X174295077Y-123164790D01*
X174170785Y-123181453D01*
X174017063Y-123188733D01*
X173861316Y-123186178D01*
X173730951Y-123173334D01*
X173655139Y-123150915D01*
X173615988Y-123086631D01*
X173589741Y-122978333D01*
X173820667Y-122978333D01*
X173858504Y-123003580D01*
X173954235Y-123018724D01*
X174011167Y-123020667D01*
X174124776Y-123012258D01*
X174192925Y-122990985D01*
X174201667Y-122978333D01*
X174163829Y-122953087D01*
X174068098Y-122937942D01*
X174011167Y-122936000D01*
X173897557Y-122944408D01*
X173829408Y-122965682D01*
X173820667Y-122978333D01*
X173589741Y-122978333D01*
X173585950Y-122962691D01*
X173576215Y-122881237D01*
X173570140Y-122736286D01*
X173586417Y-122644366D01*
X173631640Y-122575320D01*
X173646492Y-122559841D01*
X173707860Y-122512135D01*
X173788397Y-122484772D01*
X173911536Y-122472599D01*
X174053500Y-122470333D01*
X174214994Y-122471652D01*
G36*
X174126333Y-123532038D02*
G01*
X174261734Y-123546478D01*
X174347893Y-123571288D01*
X174360920Y-123581583D01*
X174386592Y-123657039D01*
X174400818Y-123784893D01*
X174403524Y-123934208D01*
X174394632Y-124074049D01*
X174374067Y-124173479D01*
X174362433Y-124195155D01*
X174291733Y-124228129D01*
X174164781Y-124246519D01*
X174008639Y-124250821D01*
X173850368Y-124241532D01*
X173717030Y-124219145D01*
X173635685Y-124184157D01*
X173633190Y-124181809D01*
X173578191Y-124089191D01*
X173572226Y-123997932D01*
X173796967Y-123997932D01*
X173802214Y-124045968D01*
X173807706Y-124051929D01*
X173871912Y-124073080D01*
X173979281Y-124077783D01*
X174089885Y-124065857D01*
X174134461Y-124053397D01*
X174184687Y-124016839D01*
X174162646Y-123982233D01*
X174080479Y-123958103D01*
X173990000Y-123952000D01*
X173863365Y-123964525D01*
X173796967Y-123997932D01*
X173572226Y-123997932D01*
X173571836Y-123991975D01*
X173612688Y-123928553D01*
X173635816Y-123886288D01*
X173612688Y-123854088D01*
X173571329Y-123761935D01*
X173572700Y-123740333D01*
X173820667Y-123740333D01*
X173858223Y-123766842D01*
X173952042Y-123781587D01*
X173990000Y-123782667D01*
X174096037Y-123773277D01*
X174155015Y-123749823D01*
X174159333Y-123740333D01*
X174121777Y-123713824D01*
X174027957Y-123699079D01*
X173990000Y-123698000D01*
X173883963Y-123707389D01*
X173824984Y-123730844D01*
X173820667Y-123740333D01*
X173572700Y-123740333D01*
X173578451Y-123649782D01*
X173617467Y-123579467D01*
X173687258Y-123551681D01*
X173812838Y-123534564D01*
X173967948Y-123528041D01*
X174126333Y-123532038D01*
X174126333Y-123532038D01*
G37*
X174126333Y-123532038D02*
X174261734Y-123546478D01*
X174347893Y-123571288D01*
X174360920Y-123581583D01*
X174386592Y-123657039D01*
X174400818Y-123784893D01*
X174403524Y-123934208D01*
X174394632Y-124074049D01*
X174374067Y-124173479D01*
X174362433Y-124195155D01*
X174291733Y-124228129D01*
X174164781Y-124246519D01*
X174008639Y-124250821D01*
X173850368Y-124241532D01*
X173717030Y-124219145D01*
X173635685Y-124184157D01*
X173633190Y-124181809D01*
X173578191Y-124089191D01*
X173572226Y-123997932D01*
X173796967Y-123997932D01*
X173802214Y-124045968D01*
X173807706Y-124051929D01*
X173871912Y-124073080D01*
X173979281Y-124077783D01*
X174089885Y-124065857D01*
X174134461Y-124053397D01*
X174184687Y-124016839D01*
X174162646Y-123982233D01*
X174080479Y-123958103D01*
X173990000Y-123952000D01*
X173863365Y-123964525D01*
X173796967Y-123997932D01*
X173572226Y-123997932D01*
X173571836Y-123991975D01*
X173612688Y-123928553D01*
X173635816Y-123886288D01*
X173612688Y-123854088D01*
X173571329Y-123761935D01*
X173572700Y-123740333D01*
X173820667Y-123740333D01*
X173858223Y-123766842D01*
X173952042Y-123781587D01*
X173990000Y-123782667D01*
X174096037Y-123773277D01*
X174155015Y-123749823D01*
X174159333Y-123740333D01*
X174121777Y-123713824D01*
X174027957Y-123699079D01*
X173990000Y-123698000D01*
X173883963Y-123707389D01*
X173824984Y-123730844D01*
X173820667Y-123740333D01*
X173572700Y-123740333D01*
X173578451Y-123649782D01*
X173617467Y-123579467D01*
X173687258Y-123551681D01*
X173812838Y-123534564D01*
X173967948Y-123528041D01*
X174126333Y-123532038D01*
D12*
X160755000Y-111036000D02*
X160755000Y-108576000D01*
X160755000Y-108576000D02*
X159285000Y-108576000D01*
X159285000Y-108576000D02*
X159285000Y-111036000D01*
X159539000Y-116196000D02*
X159539000Y-118656000D01*
X161009000Y-116196000D02*
X159539000Y-116196000D01*
X161009000Y-118656000D02*
X161009000Y-116196000D01*
X176503000Y-106308000D02*
X176503000Y-103848000D01*
X175033000Y-106308000D02*
X176503000Y-106308000D01*
X175033000Y-103848000D02*
X175033000Y-106308000D01*
X171477000Y-103848000D02*
X171477000Y-106308000D01*
X171477000Y-106308000D02*
X172947000Y-106308000D01*
X172947000Y-106308000D02*
X172947000Y-103848000D01*
X166851000Y-106308000D02*
X166851000Y-103848000D01*
X165381000Y-106308000D02*
X166851000Y-106308000D01*
X165381000Y-103848000D02*
X165381000Y-106308000D01*
X161825000Y-103848000D02*
X161825000Y-106308000D01*
X161825000Y-106308000D02*
X163295000Y-106308000D01*
X163295000Y-106308000D02*
X163295000Y-103848000D01*
X157986000Y-110064733D02*
X157986000Y-110407267D01*
X159006000Y-110064733D02*
X159006000Y-110407267D01*
X157986000Y-118027267D02*
X157986000Y-117684733D01*
X159006000Y-118027267D02*
X159006000Y-117684733D01*
X173734000Y-104476733D02*
X173734000Y-104819267D01*
X174754000Y-104476733D02*
X174754000Y-104819267D01*
X171198000Y-104476733D02*
X171198000Y-104819267D01*
X170178000Y-104476733D02*
X170178000Y-104819267D01*
X164082000Y-104476733D02*
X164082000Y-104819267D01*
X165102000Y-104476733D02*
X165102000Y-104819267D01*
X161546000Y-104476733D02*
X161546000Y-104819267D01*
X160526000Y-104476733D02*
X160526000Y-104819267D01*
X167580000Y-120710000D02*
X170240000Y-120710000D01*
X167580000Y-120590000D02*
X167580000Y-120710000D01*
X170240000Y-120590000D02*
X170240000Y-120710000D01*
X170240000Y-118050000D02*
X170240000Y-119380000D01*
X168910000Y-118050000D02*
X170240000Y-118050000D01*
D14*
X159577142Y-112539428D02*
X159577142Y-111939428D01*
X159720000Y-111939428D01*
X159805714Y-111968000D01*
X159862857Y-112025142D01*
X159891428Y-112082285D01*
X159920000Y-112196571D01*
X159920000Y-112282285D01*
X159891428Y-112396571D01*
X159862857Y-112453714D01*
X159805714Y-112510857D01*
X159720000Y-112539428D01*
X159577142Y-112539428D01*
X160491428Y-112539428D02*
X160148571Y-112539428D01*
X160320000Y-112539428D02*
X160320000Y-111939428D01*
X160262857Y-112025142D01*
X160205714Y-112082285D01*
X160148571Y-112110857D01*
X159831142Y-120413428D02*
X159831142Y-119813428D01*
X159974000Y-119813428D01*
X160059714Y-119842000D01*
X160116857Y-119899142D01*
X160145428Y-119956285D01*
X160174000Y-120070571D01*
X160174000Y-120156285D01*
X160145428Y-120270571D01*
X160116857Y-120327714D01*
X160059714Y-120384857D01*
X159974000Y-120413428D01*
X159831142Y-120413428D01*
X160402571Y-119870571D02*
X160431142Y-119842000D01*
X160488285Y-119813428D01*
X160631142Y-119813428D01*
X160688285Y-119842000D01*
X160716857Y-119870571D01*
X160745428Y-119927714D01*
X160745428Y-119984857D01*
X160716857Y-120070571D01*
X160374000Y-120413428D01*
X160745428Y-120413428D01*
X175325142Y-107205428D02*
X175325142Y-106605428D01*
X175468000Y-106605428D01*
X175553714Y-106634000D01*
X175610857Y-106691142D01*
X175639428Y-106748285D01*
X175668000Y-106862571D01*
X175668000Y-106948285D01*
X175639428Y-107062571D01*
X175610857Y-107119714D01*
X175553714Y-107176857D01*
X175468000Y-107205428D01*
X175325142Y-107205428D01*
X175868000Y-106605428D02*
X176239428Y-106605428D01*
X176039428Y-106834000D01*
X176125142Y-106834000D01*
X176182285Y-106862571D01*
X176210857Y-106891142D01*
X176239428Y-106948285D01*
X176239428Y-107091142D01*
X176210857Y-107148285D01*
X176182285Y-107176857D01*
X176125142Y-107205428D01*
X175953714Y-107205428D01*
X175896571Y-107176857D01*
X175868000Y-107148285D01*
X171769142Y-107205428D02*
X171769142Y-106605428D01*
X171912000Y-106605428D01*
X171997714Y-106634000D01*
X172054857Y-106691142D01*
X172083428Y-106748285D01*
X172112000Y-106862571D01*
X172112000Y-106948285D01*
X172083428Y-107062571D01*
X172054857Y-107119714D01*
X171997714Y-107176857D01*
X171912000Y-107205428D01*
X171769142Y-107205428D01*
X172626285Y-106805428D02*
X172626285Y-107205428D01*
X172483428Y-106576857D02*
X172340571Y-107005428D01*
X172712000Y-107005428D01*
X165673142Y-107205428D02*
X165673142Y-106605428D01*
X165816000Y-106605428D01*
X165901714Y-106634000D01*
X165958857Y-106691142D01*
X165987428Y-106748285D01*
X166016000Y-106862571D01*
X166016000Y-106948285D01*
X165987428Y-107062571D01*
X165958857Y-107119714D01*
X165901714Y-107176857D01*
X165816000Y-107205428D01*
X165673142Y-107205428D01*
X166558857Y-106605428D02*
X166273142Y-106605428D01*
X166244571Y-106891142D01*
X166273142Y-106862571D01*
X166330285Y-106834000D01*
X166473142Y-106834000D01*
X166530285Y-106862571D01*
X166558857Y-106891142D01*
X166587428Y-106948285D01*
X166587428Y-107091142D01*
X166558857Y-107148285D01*
X166530285Y-107176857D01*
X166473142Y-107205428D01*
X166330285Y-107205428D01*
X166273142Y-107176857D01*
X166244571Y-107148285D01*
X162117142Y-107205428D02*
X162117142Y-106605428D01*
X162260000Y-106605428D01*
X162345714Y-106634000D01*
X162402857Y-106691142D01*
X162431428Y-106748285D01*
X162460000Y-106862571D01*
X162460000Y-106948285D01*
X162431428Y-107062571D01*
X162402857Y-107119714D01*
X162345714Y-107176857D01*
X162260000Y-107205428D01*
X162117142Y-107205428D01*
X162974285Y-106605428D02*
X162860000Y-106605428D01*
X162802857Y-106634000D01*
X162774285Y-106662571D01*
X162717142Y-106748285D01*
X162688571Y-106862571D01*
X162688571Y-107091142D01*
X162717142Y-107148285D01*
X162745714Y-107176857D01*
X162802857Y-107205428D01*
X162917142Y-107205428D01*
X162974285Y-107176857D01*
X163002857Y-107148285D01*
X163031428Y-107091142D01*
X163031428Y-106948285D01*
X163002857Y-106891142D01*
X162974285Y-106862571D01*
X162917142Y-106834000D01*
X162802857Y-106834000D01*
X162745714Y-106862571D01*
X162717142Y-106891142D01*
X162688571Y-106948285D01*
X158396000Y-112539428D02*
X158196000Y-112253714D01*
X158053142Y-112539428D02*
X158053142Y-111939428D01*
X158281714Y-111939428D01*
X158338857Y-111968000D01*
X158367428Y-111996571D01*
X158396000Y-112053714D01*
X158396000Y-112139428D01*
X158367428Y-112196571D01*
X158338857Y-112225142D01*
X158281714Y-112253714D01*
X158053142Y-112253714D01*
X158967428Y-112539428D02*
X158624571Y-112539428D01*
X158796000Y-112539428D02*
X158796000Y-111939428D01*
X158738857Y-112025142D01*
X158681714Y-112082285D01*
X158624571Y-112110857D01*
X158396000Y-120413428D02*
X158196000Y-120127714D01*
X158053142Y-120413428D02*
X158053142Y-119813428D01*
X158281714Y-119813428D01*
X158338857Y-119842000D01*
X158367428Y-119870571D01*
X158396000Y-119927714D01*
X158396000Y-120013428D01*
X158367428Y-120070571D01*
X158338857Y-120099142D01*
X158281714Y-120127714D01*
X158053142Y-120127714D01*
X158624571Y-119870571D02*
X158653142Y-119842000D01*
X158710285Y-119813428D01*
X158853142Y-119813428D01*
X158910285Y-119842000D01*
X158938857Y-119870571D01*
X158967428Y-119927714D01*
X158967428Y-119984857D01*
X158938857Y-120070571D01*
X158596000Y-120413428D01*
X158967428Y-120413428D01*
X174144000Y-107205428D02*
X173944000Y-106919714D01*
X173801142Y-107205428D02*
X173801142Y-106605428D01*
X174029714Y-106605428D01*
X174086857Y-106634000D01*
X174115428Y-106662571D01*
X174144000Y-106719714D01*
X174144000Y-106805428D01*
X174115428Y-106862571D01*
X174086857Y-106891142D01*
X174029714Y-106919714D01*
X173801142Y-106919714D01*
X174344000Y-106605428D02*
X174715428Y-106605428D01*
X174515428Y-106834000D01*
X174601142Y-106834000D01*
X174658285Y-106862571D01*
X174686857Y-106891142D01*
X174715428Y-106948285D01*
X174715428Y-107091142D01*
X174686857Y-107148285D01*
X174658285Y-107176857D01*
X174601142Y-107205428D01*
X174429714Y-107205428D01*
X174372571Y-107176857D01*
X174344000Y-107148285D01*
X170588000Y-107205428D02*
X170388000Y-106919714D01*
X170245142Y-107205428D02*
X170245142Y-106605428D01*
X170473714Y-106605428D01*
X170530857Y-106634000D01*
X170559428Y-106662571D01*
X170588000Y-106719714D01*
X170588000Y-106805428D01*
X170559428Y-106862571D01*
X170530857Y-106891142D01*
X170473714Y-106919714D01*
X170245142Y-106919714D01*
X171102285Y-106805428D02*
X171102285Y-107205428D01*
X170959428Y-106576857D02*
X170816571Y-107005428D01*
X171188000Y-107005428D01*
X164492000Y-107205428D02*
X164292000Y-106919714D01*
X164149142Y-107205428D02*
X164149142Y-106605428D01*
X164377714Y-106605428D01*
X164434857Y-106634000D01*
X164463428Y-106662571D01*
X164492000Y-106719714D01*
X164492000Y-106805428D01*
X164463428Y-106862571D01*
X164434857Y-106891142D01*
X164377714Y-106919714D01*
X164149142Y-106919714D01*
X165034857Y-106605428D02*
X164749142Y-106605428D01*
X164720571Y-106891142D01*
X164749142Y-106862571D01*
X164806285Y-106834000D01*
X164949142Y-106834000D01*
X165006285Y-106862571D01*
X165034857Y-106891142D01*
X165063428Y-106948285D01*
X165063428Y-107091142D01*
X165034857Y-107148285D01*
X165006285Y-107176857D01*
X164949142Y-107205428D01*
X164806285Y-107205428D01*
X164749142Y-107176857D01*
X164720571Y-107148285D01*
X160936000Y-107205428D02*
X160736000Y-106919714D01*
X160593142Y-107205428D02*
X160593142Y-106605428D01*
X160821714Y-106605428D01*
X160878857Y-106634000D01*
X160907428Y-106662571D01*
X160936000Y-106719714D01*
X160936000Y-106805428D01*
X160907428Y-106862571D01*
X160878857Y-106891142D01*
X160821714Y-106919714D01*
X160593142Y-106919714D01*
X161450285Y-106605428D02*
X161336000Y-106605428D01*
X161278857Y-106634000D01*
X161250285Y-106662571D01*
X161193142Y-106748285D01*
X161164571Y-106862571D01*
X161164571Y-107091142D01*
X161193142Y-107148285D01*
X161221714Y-107176857D01*
X161278857Y-107205428D01*
X161393142Y-107205428D01*
X161450285Y-107176857D01*
X161478857Y-107148285D01*
X161507428Y-107091142D01*
X161507428Y-106948285D01*
X161478857Y-106891142D01*
X161450285Y-106862571D01*
X161393142Y-106834000D01*
X161278857Y-106834000D01*
X161221714Y-106862571D01*
X161193142Y-106891142D01*
X161164571Y-106948285D01*
M02*
