G04 #@! TF.GenerationSoftware,KiCad,Pcbnew,(5.1.4)-1*
G04 #@! TF.CreationDate,2020-01-13T04:09:21-05:00*
G04 #@! TF.ProjectId,SRXBreakout,53525842-7265-4616-9b6f-75742e6b6963,rev?*
G04 #@! TF.SameCoordinates,Original*
G04 #@! TF.FileFunction,Legend,Bot*
G04 #@! TF.FilePolarity,Positive*
%FSLAX46Y46*%
G04 Gerber Fmt 4.6, Leading zero omitted, Abs format (unit mm)*
G04 Created by KiCad (PCBNEW (5.1.4)-1) date 2020-01-13 04:09:21*
%MOMM*%
%LPD*%
G04 APERTURE LIST*
%ADD10C,0.250000*%
%ADD11C,0.120000*%
G04 APERTURE END LIST*
D10*
X176577142Y-122102619D02*
X176529523Y-122055000D01*
X176434285Y-122007380D01*
X176196190Y-122007380D01*
X176100952Y-122055000D01*
X176053333Y-122102619D01*
X176005714Y-122197857D01*
X176005714Y-122293095D01*
X176053333Y-122435952D01*
X176624761Y-123007380D01*
X176005714Y-123007380D01*
X175386666Y-122007380D02*
X175291428Y-122007380D01*
X175196190Y-122055000D01*
X175148571Y-122102619D01*
X175100952Y-122197857D01*
X175053333Y-122388333D01*
X175053333Y-122626428D01*
X175100952Y-122816904D01*
X175148571Y-122912142D01*
X175196190Y-122959761D01*
X175291428Y-123007380D01*
X175386666Y-123007380D01*
X175481904Y-122959761D01*
X175529523Y-122912142D01*
X175577142Y-122816904D01*
X175624761Y-122626428D01*
X175624761Y-122388333D01*
X175577142Y-122197857D01*
X175529523Y-122102619D01*
X175481904Y-122055000D01*
X175386666Y-122007380D01*
X174434285Y-122007380D02*
X174339047Y-122007380D01*
X174243809Y-122055000D01*
X174196190Y-122102619D01*
X174148571Y-122197857D01*
X174100952Y-122388333D01*
X174100952Y-122626428D01*
X174148571Y-122816904D01*
X174196190Y-122912142D01*
X174243809Y-122959761D01*
X174339047Y-123007380D01*
X174434285Y-123007380D01*
X174529523Y-122959761D01*
X174577142Y-122912142D01*
X174624761Y-122816904D01*
X174672380Y-122626428D01*
X174672380Y-122388333D01*
X174624761Y-122197857D01*
X174577142Y-122102619D01*
X174529523Y-122055000D01*
X174434285Y-122007380D01*
X173148571Y-123007380D02*
X173720000Y-123007380D01*
X173434285Y-123007380D02*
X173434285Y-122007380D01*
X173529523Y-122150238D01*
X173624761Y-122245476D01*
X173720000Y-122293095D01*
X172196190Y-123007380D02*
X172767619Y-123007380D01*
X172481904Y-123007380D02*
X172481904Y-122007380D01*
X172577142Y-122150238D01*
X172672380Y-122245476D01*
X172767619Y-122293095D01*
X171862857Y-122007380D02*
X171243809Y-122007380D01*
X171577142Y-122388333D01*
X171434285Y-122388333D01*
X171339047Y-122435952D01*
X171291428Y-122483571D01*
X171243809Y-122578809D01*
X171243809Y-122816904D01*
X171291428Y-122912142D01*
X171339047Y-122959761D01*
X171434285Y-123007380D01*
X171720000Y-123007380D01*
X171815238Y-122959761D01*
X171862857Y-122912142D01*
X170815238Y-122912142D02*
X170767619Y-122959761D01*
X170815238Y-123007380D01*
X170862857Y-122959761D01*
X170815238Y-122912142D01*
X170815238Y-123007380D01*
X170148571Y-122007380D02*
X170053333Y-122007380D01*
X169958095Y-122055000D01*
X169910476Y-122102619D01*
X169862857Y-122197857D01*
X169815238Y-122388333D01*
X169815238Y-122626428D01*
X169862857Y-122816904D01*
X169910476Y-122912142D01*
X169958095Y-122959761D01*
X170053333Y-123007380D01*
X170148571Y-123007380D01*
X170243809Y-122959761D01*
X170291428Y-122912142D01*
X170339047Y-122816904D01*
X170386666Y-122626428D01*
X170386666Y-122388333D01*
X170339047Y-122197857D01*
X170291428Y-122102619D01*
X170243809Y-122055000D01*
X170148571Y-122007380D01*
X168862857Y-123007380D02*
X169434285Y-123007380D01*
X169148571Y-123007380D02*
X169148571Y-122007380D01*
X169243809Y-122150238D01*
X169339047Y-122245476D01*
X169434285Y-122293095D01*
D11*
X167580000Y-107890000D02*
X170240000Y-107890000D01*
X167580000Y-108010000D02*
X167580000Y-107890000D01*
X170240000Y-108010000D02*
X170240000Y-107890000D01*
X170240000Y-110550000D02*
X170240000Y-109220000D01*
X168910000Y-110550000D02*
X170240000Y-110550000D01*
X168910000Y-118170000D02*
X170240000Y-118170000D01*
X170240000Y-118170000D02*
X170240000Y-116840000D01*
X170240000Y-115630000D02*
X170240000Y-115510000D01*
X167580000Y-115630000D02*
X167580000Y-115510000D01*
X167580000Y-115510000D02*
X170240000Y-115510000D01*
X171450000Y-110550000D02*
X172780000Y-110550000D01*
X172780000Y-110550000D02*
X172780000Y-109220000D01*
X172780000Y-108010000D02*
X172780000Y-107890000D01*
X170120000Y-108010000D02*
X170120000Y-107890000D01*
X170120000Y-107890000D02*
X172780000Y-107890000D01*
X170120000Y-110430000D02*
X172780000Y-110430000D01*
X170120000Y-110550000D02*
X170120000Y-110430000D01*
X172780000Y-110550000D02*
X172780000Y-110430000D01*
X172780000Y-113090000D02*
X172780000Y-111760000D01*
X171450000Y-113090000D02*
X172780000Y-113090000D01*
X167580000Y-110430000D02*
X170240000Y-110430000D01*
X167580000Y-110550000D02*
X167580000Y-110430000D01*
X170240000Y-110550000D02*
X170240000Y-110430000D01*
X170240000Y-113090000D02*
X170240000Y-111760000D01*
X168910000Y-113090000D02*
X170240000Y-113090000D01*
X168910000Y-115630000D02*
X170240000Y-115630000D01*
X170240000Y-115630000D02*
X170240000Y-114300000D01*
X170240000Y-113090000D02*
X170240000Y-112970000D01*
X167580000Y-113090000D02*
X167580000Y-112970000D01*
X167580000Y-112970000D02*
X170240000Y-112970000D01*
X170120000Y-112970000D02*
X172780000Y-112970000D01*
X170120000Y-113090000D02*
X170120000Y-112970000D01*
X172780000Y-113090000D02*
X172780000Y-112970000D01*
X172780000Y-115630000D02*
X172780000Y-114300000D01*
X171450000Y-115630000D02*
X172780000Y-115630000D01*
X171450000Y-118170000D02*
X172780000Y-118170000D01*
X172780000Y-118170000D02*
X172780000Y-116840000D01*
X172780000Y-115630000D02*
X172780000Y-115510000D01*
X170120000Y-115630000D02*
X170120000Y-115510000D01*
X170120000Y-115510000D02*
X172780000Y-115510000D01*
M02*
