G04 #@! TF.GenerationSoftware,KiCad,Pcbnew,(5.1.4)-1*
G04 #@! TF.CreationDate,2020-01-13T04:09:21-05:00*
G04 #@! TF.ProjectId,SRXBreakout,53525842-7265-4616-9b6f-75742e6b6963,rev?*
G04 #@! TF.SameCoordinates,Original*
G04 #@! TF.FileFunction,Profile,NP*
%FSLAX46Y46*%
G04 Gerber Fmt 4.6, Leading zero omitted, Abs format (unit mm)*
G04 Created by KiCad (PCBNEW (5.1.4)-1) date 2020-01-13 04:09:21*
%MOMM*%
%LPD*%
G04 APERTURE LIST*
%ADD10C,0.150000*%
G04 APERTURE END LIST*
D10*
X151130000Y-126365000D02*
X158115000Y-126365000D01*
X149860000Y-106680000D02*
X147955000Y-106680000D01*
X147320000Y-107315000D02*
G75*
G02X147955000Y-106680000I635000J0D01*
G01*
X150495000Y-106045000D02*
G75*
G02X149860000Y-106680000I-635000J0D01*
G01*
X150495000Y-102870000D02*
X150495000Y-106045000D01*
X147955000Y-121920000D02*
G75*
G02X147320000Y-121285000I0J635000D01*
G01*
X149860000Y-121920000D02*
X147955000Y-121920000D01*
X150495000Y-122555000D02*
X150495000Y-125730000D01*
X149860000Y-121920000D02*
G75*
G02X150495000Y-122555000I0J-635000D01*
G01*
X158750000Y-122555000D02*
X158750000Y-125730000D01*
X165100000Y-121920000D02*
X159385000Y-121920000D01*
X158750000Y-122555000D02*
G75*
G02X159385000Y-121920000I635000J0D01*
G01*
X177800000Y-102870000D02*
X177800000Y-125730000D01*
X151130000Y-102235000D02*
X177165000Y-102235000D01*
X147320000Y-121285000D02*
X147320000Y-107315000D01*
X166370000Y-126365000D02*
X177165000Y-126365000D01*
X151130000Y-126365000D02*
G75*
G02X150495000Y-125730000I0J635000D01*
G01*
X150495000Y-102870000D02*
G75*
G02X151130000Y-102235000I635000J0D01*
G01*
X177165000Y-102235000D02*
G75*
G02X177800000Y-102870000I0J-635000D01*
G01*
X177800000Y-125730000D02*
G75*
G02X177165000Y-126365000I-635000J0D01*
G01*
X158750000Y-125730000D02*
G75*
G02X158115000Y-126365000I-635000J0D01*
G01*
X165735000Y-122555000D02*
X165735000Y-125730000D01*
X166370000Y-126365000D02*
G75*
G02X165735000Y-125730000I0J635000D01*
G01*
X165100000Y-121920000D02*
G75*
G02X165735000Y-122555000I0J-635000D01*
G01*
M02*
