M48
INCH,TZ
T1C0.0157
T2C0.0256
T3C0.0394
T4C0.1181
%
G90
G05
T1
X60000Y-44100
X60750Y-47022
X62400Y-44500
X62400Y-45000
X64000Y-42500
X64000Y-45500
X64100Y-47300
X64500Y-45500
X68400Y-42400
X68500Y-45500
X69200Y-42400
T2
X61000Y-44000
X61000Y-44500
X61000Y-45000
X61000Y-45500
X61000Y-46000
X61500Y-44000
X61500Y-44500
X61500Y-45000
X61500Y-45500
X61500Y-46000
T3
X67500Y-43000
X66500Y-46000
X66500Y-47000
X67500Y-46000
X66500Y-44000
X67500Y-44000
X67500Y-45000
X66500Y-45000
X66500Y-43000
T4
X61250Y-41250
X61250Y-48750
T0
M30
